<svg xmlns="http://www.w3.org/2000/svg" xmlns:xlink="http://www.w3.org/1999/xlink" width="489" zoomAndPan="magnify" viewBox="0 0 366.75 116.999995" height="156" preserveAspectRatio="xMidYMid meet" version="1.0"><defs><g/><clipPath id="1b2a5cbee2"><path d="M 0 0.0390625 L 366.5 0.0390625 L 366.5 116.960938 L 0 116.960938 Z M 0 0.0390625 " clip-rule="nonzero"/></clipPath><clipPath id="6d65e12d1f"><path d="M 0 0.0390625 L 153.433594 0.0390625 L 153.433594 105.695312 L 0 105.695312 Z M 0 0.0390625 " clip-rule="nonzero"/></clipPath></defs><g clip-path="url(#1b2a5cbee2)"><path fill="#ffffff" d="M 0 0.0390625 L 366.5 0.0390625 L 366.5 116.960938 L 0 116.960938 Z M 0 0.0390625 " fill-opacity="1" fill-rule="nonzero"/></g><g clip-path="url(#6d65e12d1f)"><path fill="#f58222" d="M 331.03125 100.027344 C 332.679688 100.027344 334.015625 101.363281 334.015625 103.011719 C 334.015625 104.660156 332.679688 105.992188 331.03125 105.992188 L 24.742188 105.992188 C 21.792969 105.992188 19.113281 104.789062 17.171875 102.847656 C 15.230469 100.90625 14.027344 98.226562 14.027344 95.277344 L 14.027344 57.597656 L 8.710938 57.597656 C 6.632812 57.597656 4.925781 57.050781 3.59375 56.148438 C 2.117188 55.152344 1.136719 53.738281 0.644531 52.136719 L 0.640625 52.136719 C 0.1875 50.648438 0.171875 49.007812 0.582031 47.414062 C 1.066406 45.515625 2.164062 43.664062 3.828125 42.230469 L 49.492188 2.863281 C 51.679688 0.980469 54.515625 0.0390625 57.320312 0.0390625 C 60.121094 0.0390625 62.957031 0.980469 65.140625 2.863281 L 95.832031 29.410156 C 97.074219 30.480469 97.207031 32.359375 96.136719 33.601562 C 95.0625 34.84375 93.183594 34.980469 91.941406 33.90625 L 61.25 7.363281 C 60.199219 6.457031 58.773438 6.003906 57.320312 6.003906 C 55.863281 6.003906 54.433594 6.457031 53.386719 7.363281 L 7.71875 46.726562 C 7 47.347656 6.535156 48.117188 6.335938 48.882812 C 6.199219 49.421875 6.195312 49.945312 6.328125 50.386719 L 6.324219 50.390625 L 6.328125 50.398438 C 6.425781 50.71875 6.625 51.003906 6.925781 51.207031 C 7.3125 51.472656 7.902344 51.628906 8.710938 51.628906 L 17.007812 51.628906 C 18.65625 51.628906 19.992188 52.964844 19.992188 54.613281 L 19.992188 95.277344 C 19.992188 96.578125 20.527344 97.769531 21.386719 98.628906 C 22.25 99.492188 23.4375 100.027344 24.742188 100.027344 Z M 331.03125 100.027344 " fill-opacity="1" fill-rule="nonzero"/></g><g fill="#002f6d" fill-opacity="1"><g transform="translate(33.842268, 73.547938)"><g><path d="M 25.90625 -6.46875 L 25.90625 -4.953125 C 25.90625 -3.847656 25.957031 -2.945312 26.0625 -2.25 C 26.175781 -1.550781 26.300781 -0.800781 26.4375 0 L 19.09375 0 C 18.769531 -1.125 18.609375 -2.773438 18.609375 -4.953125 L 18.609375 -6.0625 C 18.609375 -7.382812 18.226562 -8.359375 17.46875 -8.984375 C 16.707031 -9.617188 15.738281 -9.9375 14.5625 -9.9375 L 9.5625 -9.9375 L 9.5625 0 L 2.234375 0 L 2.234375 -27.4375 L 17.40625 -27.4375 C 20.507812 -27.4375 22.816406 -26.71875 24.328125 -25.28125 C 25.847656 -23.851562 26.609375 -22.039062 26.609375 -19.84375 C 26.609375 -17.882812 26.039062 -16.273438 24.90625 -15.015625 C 23.78125 -13.753906 22.367188 -12.941406 20.671875 -12.578125 C 21.628906 -12.390625 22.5 -12.070312 23.28125 -11.625 C 24.070312 -11.1875 24.707031 -10.554688 25.1875 -9.734375 C 25.664062 -8.910156 25.90625 -7.820312 25.90625 -6.46875 Z M 15.46875 -15.140625 C 16.726562 -15.140625 17.632812 -15.425781 18.1875 -16 C 18.738281 -16.582031 19.015625 -17.460938 19.015625 -18.640625 C 19.015625 -19.710938 18.734375 -20.515625 18.171875 -21.046875 C 17.609375 -21.585938 16.722656 -21.859375 15.515625 -21.859375 L 9.5625 -21.859375 L 9.5625 -15.140625 Z M 15.46875 -15.140625 "/></g></g></g><g fill="#002f6d" fill-opacity="1"><g transform="translate(60.113919, 73.547938)"><g><path d="M 12.90625 -4.078125 C 13.957031 -4.078125 14.8125 -4.285156 15.46875 -4.703125 C 16.125 -5.117188 16.59375 -5.628906 16.875 -6.234375 L 23.765625 -6.234375 C 23.546875 -5.046875 23.039062 -3.925781 22.25 -2.875 C 21.46875 -1.832031 20.3125 -0.984375 18.78125 -0.328125 C 17.257812 0.328125 15.25 0.65625 12.75 0.65625 C 10.65625 0.65625 8.878906 0.351562 7.421875 -0.25 C 5.960938 -0.851562 4.785156 -1.675781 3.890625 -2.71875 C 3.003906 -3.769531 2.359375 -4.953125 1.953125 -6.265625 C 1.554688 -7.585938 1.359375 -8.953125 1.359375 -10.359375 C 1.359375 -12.359375 1.753906 -14.179688 2.546875 -15.828125 C 3.347656 -17.484375 4.585938 -18.804688 6.265625 -19.796875 C 7.941406 -20.785156 10.101562 -21.28125 12.75 -21.28125 C 14.863281 -21.28125 16.628906 -20.976562 18.046875 -20.375 C 19.460938 -19.769531 20.597656 -18.941406 21.453125 -17.890625 C 22.304688 -16.847656 22.914062 -15.664062 23.28125 -14.34375 C 23.65625 -13.03125 23.84375 -11.660156 23.84375 -10.234375 C 23.84375 -9.546875 23.800781 -8.96875 23.71875 -8.5 L 8.25 -8.5 C 8.46875 -6.84375 8.96875 -5.691406 9.75 -5.046875 C 10.539062 -4.398438 11.59375 -4.078125 12.90625 -4.078125 Z M 12.828125 -16.625 C 11.566406 -16.625 10.554688 -16.328125 9.796875 -15.734375 C 9.035156 -15.140625 8.546875 -14.101562 8.328125 -12.625 L 17.125 -12.625 C 17.007812 -13.914062 16.609375 -14.90625 15.921875 -15.59375 C 15.234375 -16.28125 14.203125 -16.625 12.828125 -16.625 Z M 12.828125 -16.625 "/></g></g></g><g fill="#002f6d" fill-opacity="1"><g transform="translate(83.292286, 73.547938)"><g><path d="M 8.421875 0.53125 C 6.359375 0.53125 4.695312 -0.0078125 3.4375 -1.09375 C 2.1875 -2.175781 1.5625 -3.625 1.5625 -5.4375 C 1.5625 -6.539062 1.753906 -7.519531 2.140625 -8.375 C 2.523438 -9.226562 3.226562 -9.945312 4.25 -10.53125 C 5.269531 -11.125 6.726562 -11.570312 8.625 -11.875 L 13.28125 -12.703125 C 14.238281 -12.867188 14.875 -13.09375 15.1875 -13.375 C 15.507812 -13.664062 15.671875 -14.078125 15.671875 -14.609375 C 15.671875 -15.234375 15.453125 -15.71875 15.015625 -16.0625 C 14.578125 -16.40625 13.765625 -16.578125 12.578125 -16.578125 C 10.160156 -16.578125 8.925781 -15.644531 8.875 -13.78125 L 1.984375 -13.78125 C 2.085938 -15.976562 3.050781 -17.773438 4.875 -19.171875 C 6.707031 -20.578125 9.25 -21.28125 12.5 -21.28125 C 15.769531 -21.28125 18.207031 -20.640625 19.8125 -19.359375 C 21.425781 -18.085938 22.234375 -16.269531 22.234375 -13.90625 L 22.234375 -5.6875 C 22.234375 -3.601562 22.359375 -1.707031 22.609375 0 L 16.5 0 C 16.382812 -0.601562 16.300781 -1.253906 16.25 -1.953125 C 16.195312 -2.660156 16.171875 -3.441406 16.171875 -4.296875 C 15.648438 -2.773438 14.75 -1.585938 13.46875 -0.734375 C 12.1875 0.109375 10.503906 0.53125 8.421875 0.53125 Z M 11.09375 -4.078125 C 12.445312 -4.078125 13.546875 -4.550781 14.390625 -5.5 C 15.242188 -6.457031 15.671875 -7.851562 15.671875 -9.6875 L 15.671875 -10.484375 C 15.179688 -10.117188 14.679688 -9.847656 14.171875 -9.671875 C 13.660156 -9.492188 13.085938 -9.320312 12.453125 -9.15625 L 11.265625 -8.875 C 10.273438 -8.625 9.570312 -8.304688 9.15625 -7.921875 C 8.738281 -7.535156 8.53125 -6.984375 8.53125 -6.265625 C 8.53125 -5.554688 8.78125 -5.015625 9.28125 -4.640625 C 9.78125 -4.265625 10.382812 -4.078125 11.09375 -4.078125 Z M 11.09375 -4.078125 "/></g></g></g><g fill="#002f6d" fill-opacity="1"><g transform="translate(105.687025, 73.547938)"><g><path d="M 2.109375 0 L 2.109375 -28.875 L 9.203125 -28.875 L 9.203125 0 Z M 2.109375 0 "/></g></g></g><g fill="#002f6d" fill-opacity="1"><g transform="translate(115.090007, 73.547938)"><g><path d="M 9.484375 -5.734375 L 24.296875 -5.734375 L 24.296875 0 L 2.234375 0 L 2.234375 -27.4375 L 24.171875 -27.4375 L 24.171875 -21.703125 L 9.484375 -21.703125 L 9.484375 -16.625 L 22.9375 -16.625 L 22.9375 -11.296875 L 9.484375 -11.296875 Z M 9.484375 -5.734375 "/></g></g></g><g fill="#002f6d" fill-opacity="1"><g transform="translate(139.299469, 73.547938)"><g><path d="M 0.90625 -6.640625 L 7.34375 -6.640625 C 7.425781 -5.785156 7.816406 -5.0625 8.515625 -4.46875 C 9.210938 -3.882812 10.222656 -3.59375 11.546875 -3.59375 C 12.703125 -3.59375 13.523438 -3.765625 14.015625 -4.109375 C 14.515625 -4.453125 14.765625 -4.925781 14.765625 -5.53125 C 14.765625 -6.050781 14.601562 -6.507812 14.28125 -6.90625 C 13.96875 -7.300781 13.207031 -7.570312 12 -7.71875 L 7.625 -8.203125 C 5.625 -8.421875 4.097656 -9.0625 3.046875 -10.125 C 2.003906 -11.1875 1.484375 -12.609375 1.484375 -14.390625 C 1.484375 -16.046875 1.910156 -17.375 2.765625 -18.375 C 3.617188 -19.375 4.78125 -20.109375 6.25 -20.578125 C 7.71875 -21.046875 9.375 -21.28125 11.21875 -21.28125 C 14.082031 -21.28125 16.425781 -20.757812 18.25 -19.71875 C 20.082031 -18.675781 21.09375 -16.941406 21.28125 -14.515625 L 14.84375 -14.515625 C 14.738281 -15.316406 14.394531 -15.941406 13.8125 -16.390625 C 13.238281 -16.847656 12.390625 -17.078125 11.265625 -17.078125 C 10.078125 -17.078125 9.226562 -16.882812 8.71875 -16.5 C 8.21875 -16.113281 7.96875 -15.632812 7.96875 -15.0625 C 7.96875 -14.613281 8.128906 -14.21875 8.453125 -13.875 C 8.785156 -13.53125 9.429688 -13.304688 10.390625 -13.203125 L 14.640625 -12.78125 C 17.085938 -12.539062 18.847656 -11.90625 19.921875 -10.875 C 20.992188 -9.84375 21.53125 -8.335938 21.53125 -6.359375 C 21.53125 -5.054688 21.21875 -3.867188 20.59375 -2.796875 C 19.976562 -1.734375 18.9375 -0.890625 17.46875 -0.265625 C 16 0.347656 13.984375 0.65625 11.421875 0.65625 C 8.921875 0.65625 6.90625 0.3125 5.375 -0.375 C 3.851562 -1.0625 2.738281 -1.960938 2.03125 -3.078125 C 1.332031 -4.191406 0.957031 -5.378906 0.90625 -6.640625 Z M 0.90625 -6.640625 "/></g></g></g><g fill="#002f6d" fill-opacity="1"><g transform="translate(159.961973, 73.547938)"><g><path d="M 12.25 0 C 10.15625 0 8.503906 -0.304688 7.296875 -0.921875 C 6.085938 -1.546875 5.226562 -2.460938 4.71875 -3.671875 C 4.207031 -4.878906 3.953125 -6.363281 3.953125 -8.125 L 3.953125 -15.296875 L 0.328125 -15.296875 L 0.328125 -18.609375 L 4.53125 -20.453125 L 7.46875 -25.609375 L 11.0625 -25.609375 L 11.0625 -20.625 L 16.671875 -20.625 L 16.671875 -15.296875 L 11.0625 -15.296875 L 11.0625 -5.609375 L 16 -5.609375 L 16 0 Z M 12.25 0 "/></g></g></g><g fill="#002f6d" fill-opacity="1"><g transform="translate(175.75773, 73.547938)"><g><path d="M 8.421875 0.53125 C 6.359375 0.53125 4.695312 -0.0078125 3.4375 -1.09375 C 2.1875 -2.175781 1.5625 -3.625 1.5625 -5.4375 C 1.5625 -6.539062 1.753906 -7.519531 2.140625 -8.375 C 2.523438 -9.226562 3.226562 -9.945312 4.25 -10.53125 C 5.269531 -11.125 6.726562 -11.570312 8.625 -11.875 L 13.28125 -12.703125 C 14.238281 -12.867188 14.875 -13.09375 15.1875 -13.375 C 15.507812 -13.664062 15.671875 -14.078125 15.671875 -14.609375 C 15.671875 -15.234375 15.453125 -15.71875 15.015625 -16.0625 C 14.578125 -16.40625 13.765625 -16.578125 12.578125 -16.578125 C 10.160156 -16.578125 8.925781 -15.644531 8.875 -13.78125 L 1.984375 -13.78125 C 2.085938 -15.976562 3.050781 -17.773438 4.875 -19.171875 C 6.707031 -20.578125 9.25 -21.28125 12.5 -21.28125 C 15.769531 -21.28125 18.207031 -20.640625 19.8125 -19.359375 C 21.425781 -18.085938 22.234375 -16.269531 22.234375 -13.90625 L 22.234375 -5.6875 C 22.234375 -3.601562 22.359375 -1.707031 22.609375 0 L 16.5 0 C 16.382812 -0.601562 16.300781 -1.253906 16.25 -1.953125 C 16.195312 -2.660156 16.171875 -3.441406 16.171875 -4.296875 C 15.648438 -2.773438 14.75 -1.585938 13.46875 -0.734375 C 12.1875 0.109375 10.503906 0.53125 8.421875 0.53125 Z M 11.09375 -4.078125 C 12.445312 -4.078125 13.546875 -4.550781 14.390625 -5.5 C 15.242188 -6.457031 15.671875 -7.851562 15.671875 -9.6875 L 15.671875 -10.484375 C 15.179688 -10.117188 14.679688 -9.847656 14.171875 -9.671875 C 13.660156 -9.492188 13.085938 -9.320312 12.453125 -9.15625 L 11.265625 -8.875 C 10.273438 -8.625 9.570312 -8.304688 9.15625 -7.921875 C 8.738281 -7.535156 8.53125 -6.984375 8.53125 -6.265625 C 8.53125 -5.554688 8.78125 -5.015625 9.28125 -4.640625 C 9.78125 -4.265625 10.382812 -4.078125 11.09375 -4.078125 Z M 11.09375 -4.078125 "/></g></g></g><g fill="#002f6d" fill-opacity="1"><g transform="translate(198.152469, 73.547938)"><g><path d="M 12.25 0 C 10.15625 0 8.503906 -0.304688 7.296875 -0.921875 C 6.085938 -1.546875 5.226562 -2.460938 4.71875 -3.671875 C 4.207031 -4.878906 3.953125 -6.363281 3.953125 -8.125 L 3.953125 -15.296875 L 0.328125 -15.296875 L 0.328125 -18.609375 L 4.53125 -20.453125 L 7.46875 -25.609375 L 11.0625 -25.609375 L 11.0625 -20.625 L 16.671875 -20.625 L 16.671875 -15.296875 L 11.0625 -15.296875 L 11.0625 -5.609375 L 16 -5.609375 L 16 0 Z M 12.25 0 "/></g></g></g><g fill="#002f6d" fill-opacity="1"><g transform="translate(213.948226, 73.547938)"><g><path d="M 12.90625 -4.078125 C 13.957031 -4.078125 14.8125 -4.285156 15.46875 -4.703125 C 16.125 -5.117188 16.59375 -5.628906 16.875 -6.234375 L 23.765625 -6.234375 C 23.546875 -5.046875 23.039062 -3.925781 22.25 -2.875 C 21.46875 -1.832031 20.3125 -0.984375 18.78125 -0.328125 C 17.257812 0.328125 15.25 0.65625 12.75 0.65625 C 10.65625 0.65625 8.878906 0.351562 7.421875 -0.25 C 5.960938 -0.851562 4.785156 -1.675781 3.890625 -2.71875 C 3.003906 -3.769531 2.359375 -4.953125 1.953125 -6.265625 C 1.554688 -7.585938 1.359375 -8.953125 1.359375 -10.359375 C 1.359375 -12.359375 1.753906 -14.179688 2.546875 -15.828125 C 3.347656 -17.484375 4.585938 -18.804688 6.265625 -19.796875 C 7.941406 -20.785156 10.101562 -21.28125 12.75 -21.28125 C 14.863281 -21.28125 16.628906 -20.976562 18.046875 -20.375 C 19.460938 -19.769531 20.597656 -18.941406 21.453125 -17.890625 C 22.304688 -16.847656 22.914062 -15.664062 23.28125 -14.34375 C 23.65625 -13.03125 23.84375 -11.660156 23.84375 -10.234375 C 23.84375 -9.546875 23.800781 -8.96875 23.71875 -8.5 L 8.25 -8.5 C 8.46875 -6.84375 8.96875 -5.691406 9.75 -5.046875 C 10.539062 -4.398438 11.59375 -4.078125 12.90625 -4.078125 Z M 12.828125 -16.625 C 11.566406 -16.625 10.554688 -16.328125 9.796875 -15.734375 C 9.035156 -15.140625 8.546875 -14.101562 8.328125 -12.625 L 17.125 -12.625 C 17.007812 -13.914062 16.609375 -14.90625 15.921875 -15.59375 C 15.234375 -16.28125 14.203125 -16.625 12.828125 -16.625 Z M 12.828125 -16.625 "/></g></g></g><g fill="#002f6d" fill-opacity="1"><g transform="translate(237.126593, 73.547938)"><g><path d="M 0.953125 0 L 0.953125 -6.1875 L 7.625 -6.1875 L 7.625 0 Z M 0.953125 0 "/></g></g></g><g fill="#002f6d" fill-opacity="1"><g transform="translate(243.766246, 73.547938)"><g><path d="M 9.484375 -5.734375 L 24.296875 -5.734375 L 24.296875 0 L 2.234375 0 L 2.234375 -27.4375 L 24.171875 -27.4375 L 24.171875 -21.703125 L 9.484375 -21.703125 L 9.484375 -16.625 L 22.9375 -16.625 L 22.9375 -11.296875 L 9.484375 -11.296875 Z M 9.484375 -5.734375 "/></g></g></g><g fill="#002f6d" fill-opacity="1"><g transform="translate(267.975708, 73.547938)"><g><path d="M 14.609375 0.65625 C 12.378906 0.65625 10.445312 0.28125 8.8125 -0.46875 C 7.175781 -1.226562 5.828125 -2.265625 4.765625 -3.578125 C 3.703125 -4.898438 2.914062 -6.425781 2.40625 -8.15625 C 1.90625 -9.894531 1.65625 -11.738281 1.65625 -13.6875 C 1.65625 -15.675781 1.941406 -17.539062 2.515625 -19.28125 C 3.085938 -21.03125 3.976562 -22.570312 5.1875 -23.90625 C 6.40625 -25.238281 7.96875 -26.273438 9.875 -27.015625 C 11.789062 -27.753906 14.082031 -28.125 16.75 -28.125 C 19.90625 -28.125 22.457031 -27.6875 24.40625 -26.8125 C 26.363281 -25.9375 27.8125 -24.753906 28.75 -23.265625 C 29.6875 -21.773438 30.207031 -20.140625 30.3125 -18.359375 L 23.0625 -18.359375 C 22.894531 -19.566406 22.296875 -20.5625 21.265625 -21.34375 C 20.234375 -22.125 18.738281 -22.515625 16.78125 -22.515625 C 14.34375 -22.515625 12.472656 -21.820312 11.171875 -20.4375 C 9.878906 -19.050781 9.234375 -16.800781 9.234375 -13.6875 C 9.234375 -10.78125 9.800781 -8.597656 10.9375 -7.140625 C 12.082031 -5.679688 13.878906 -4.953125 16.328125 -4.953125 C 17.984375 -4.953125 19.296875 -5.195312 20.265625 -5.6875 C 21.242188 -6.1875 21.972656 -6.851562 22.453125 -7.6875 C 22.941406 -8.53125 23.253906 -9.460938 23.390625 -10.484375 L 14.515625 -10.484375 L 14.515625 -15.0625 L 30.28125 -15.0625 L 30.28125 0 L 24.21875 0 L 24.21875 -5.03125 C 23.851562 -4.070312 23.304688 -3.148438 22.578125 -2.265625 C 21.847656 -1.390625 20.835938 -0.679688 19.546875 -0.140625 C 18.253906 0.390625 16.609375 0.65625 14.609375 0.65625 Z M 14.609375 0.65625 "/></g></g></g><g fill="#ff9202" fill-opacity="1"><g transform="translate(163.106169, 107.318291)"><g><path d="M 8.71875 -2.046875 L 8.71875 -1.671875 C 8.71875 -1.304688 8.726562 -1.007812 8.75 -0.78125 C 8.78125 -0.550781 8.820312 -0.289062 8.875 0 L 6.140625 0 C 6.078125 -0.207031 6.03125 -0.445312 6 -0.71875 C 5.976562 -0.988281 5.96875 -1.3125 5.96875 -1.6875 L 5.96875 -1.921875 C 5.96875 -2.296875 5.859375 -2.570312 5.640625 -2.75 C 5.421875 -2.9375 5.15625 -3.03125 4.84375 -3.03125 L 3.40625 -3.03125 L 3.40625 0 L 0.671875 0 L 0.671875 -8.96875 L 5.859375 -8.96875 C 6.910156 -8.96875 7.679688 -8.726562 8.171875 -8.25 C 8.660156 -7.78125 8.90625 -7.1875 8.90625 -6.46875 C 8.90625 -5.8125 8.71875 -5.269531 8.34375 -4.84375 C 7.96875 -4.425781 7.492188 -4.164062 6.921875 -4.0625 C 7.234375 -4.007812 7.523438 -3.910156 7.796875 -3.765625 C 8.066406 -3.617188 8.285156 -3.40625 8.453125 -3.125 C 8.628906 -2.851562 8.71875 -2.492188 8.71875 -2.046875 Z M 5.046875 -4.96875 C 5.742188 -4.96875 6.09375 -5.300781 6.09375 -5.96875 C 6.09375 -6.289062 6.007812 -6.523438 5.84375 -6.671875 C 5.6875 -6.828125 5.429688 -6.90625 5.078125 -6.90625 L 3.40625 -6.90625 L 3.40625 -4.96875 Z M 5.046875 -4.96875 "/></g></g></g><g fill="#ff9202" fill-opacity="1"><g transform="translate(175.080011, 107.318291)"><g><path d="M 3.390625 -2.125 L 8.015625 -2.125 L 8.015625 0 L 0.671875 0 L 0.671875 -8.96875 L 7.984375 -8.96875 L 7.984375 -6.84375 L 3.390625 -6.84375 L 3.390625 -5.53125 L 7.578125 -5.53125 L 7.578125 -3.578125 L 3.390625 -3.578125 Z M 3.390625 -2.125 "/></g></g></g><g fill="#002f6d" fill-opacity="1"><g transform="translate(186.276125, 107.318291)"><g><path d="M 7.75 0 L 7.234375 -1.53125 L 3.5625 -1.53125 L 3.046875 0 L 0.34375 0 L 3.3125 -8.96875 L 7.484375 -8.96875 L 10.46875 0 Z M 4.234375 -3.5625 L 6.5625 -3.5625 L 5.390625 -7.0625 Z M 4.234375 -3.5625 "/></g></g></g><g fill="#002f6d" fill-opacity="1"><g transform="translate(199.704258, 107.318291)"><g><path d="M 3.40625 -2.125 L 7.265625 -2.125 L 7.265625 0 L 0.671875 0 L 0.671875 -8.96875 L 3.40625 -8.96875 Z M 3.40625 -2.125 "/></g></g></g><g fill="#002f6d" fill-opacity="1"><g transform="translate(210.008363, 107.318291)"><g><path d="M 3.390625 -2.125 L 8.015625 -2.125 L 8.015625 0 L 0.671875 0 L 0.671875 -8.96875 L 7.984375 -8.96875 L 7.984375 -6.84375 L 3.390625 -6.84375 L 3.390625 -5.53125 L 7.578125 -5.53125 L 7.578125 -3.578125 L 3.390625 -3.578125 Z M 3.390625 -2.125 "/></g></g></g><g fill="#002f6d" fill-opacity="1"><g transform="translate(221.201199, 107.318291)"><g><path d="M 0.40625 -2.890625 L 3.03125 -2.890625 C 3.0625 -2.703125 3.128906 -2.519531 3.234375 -2.34375 C 3.335938 -2.164062 3.5 -2.015625 3.71875 -1.890625 C 3.9375 -1.773438 4.222656 -1.71875 4.578125 -1.71875 C 5.035156 -1.71875 5.378906 -1.789062 5.609375 -1.9375 C 5.835938 -2.09375 5.953125 -2.300781 5.953125 -2.5625 C 5.953125 -2.820312 5.875 -3.015625 5.71875 -3.140625 C 5.570312 -3.265625 5.351562 -3.347656 5.0625 -3.390625 L 3.171875 -3.59375 C 2.335938 -3.675781 1.691406 -3.945312 1.234375 -4.40625 C 0.773438 -4.875 0.546875 -5.5 0.546875 -6.28125 C 0.546875 -7.15625 0.875 -7.859375 1.53125 -8.390625 C 2.1875 -8.921875 3.175781 -9.1875 4.5 -9.1875 C 5.457031 -9.1875 6.226562 -9.050781 6.8125 -8.78125 C 7.394531 -8.519531 7.828125 -8.164062 8.109375 -7.71875 C 8.390625 -7.28125 8.550781 -6.796875 8.59375 -6.265625 L 5.921875 -6.265625 C 5.878906 -6.566406 5.738281 -6.800781 5.5 -6.96875 C 5.269531 -7.144531 4.941406 -7.234375 4.515625 -7.234375 C 4.148438 -7.234375 3.847656 -7.164062 3.609375 -7.03125 C 3.378906 -6.90625 3.265625 -6.722656 3.265625 -6.484375 C 3.265625 -6.285156 3.332031 -6.117188 3.46875 -5.984375 C 3.601562 -5.847656 3.832031 -5.769531 4.15625 -5.75 L 5.703125 -5.609375 C 6.742188 -5.515625 7.5 -5.222656 7.96875 -4.734375 C 8.4375 -4.253906 8.671875 -3.601562 8.671875 -2.78125 C 8.671875 -2.195312 8.535156 -1.675781 8.265625 -1.21875 C 7.992188 -0.769531 7.554688 -0.414062 6.953125 -0.15625 C 6.347656 0.101562 5.539062 0.234375 4.53125 0.234375 C 3.789062 0.234375 3.164062 0.144531 2.65625 -0.03125 C 2.144531 -0.207031 1.726562 -0.441406 1.40625 -0.734375 C 1.09375 -1.035156 0.851562 -1.367188 0.6875 -1.734375 C 0.53125 -2.109375 0.4375 -2.492188 0.40625 -2.890625 Z M 0.40625 -2.890625 "/></g></g></g><g fill="#002f6d" fill-opacity="1"><g transform="translate(232.932663, 107.318291)"><g><path d="M 8.71875 -8.96875 L 8.71875 -6.84375 L 5.921875 -6.84375 L 5.921875 0 L 3.203125 0 L 3.203125 -6.84375 L 0.40625 -6.84375 L 0.40625 -8.96875 Z M 8.71875 -8.96875 "/></g></g></g><g fill="#002f6d" fill-opacity="1"><g transform="translate(244.691058, 107.318291)"><g><path d="M 7.75 0 L 7.234375 -1.53125 L 3.5625 -1.53125 L 3.046875 0 L 0.34375 0 L 3.3125 -8.96875 L 7.484375 -8.96875 L 10.46875 0 Z M 4.234375 -3.5625 L 6.5625 -3.5625 L 5.390625 -7.0625 Z M 4.234375 -3.5625 "/></g></g></g><g fill="#002f6d" fill-opacity="1"><g transform="translate(258.119194, 107.318291)"><g><path d="M 8.71875 -8.96875 L 8.71875 -6.84375 L 5.921875 -6.84375 L 5.921875 0 L 3.203125 0 L 3.203125 -6.84375 L 0.40625 -6.84375 L 0.40625 -8.96875 Z M 8.71875 -8.96875 "/></g></g></g><g fill="#002f6d" fill-opacity="1"><g transform="translate(269.877589, 107.318291)"><g><path d="M 3.390625 -2.125 L 8.015625 -2.125 L 8.015625 0 L 0.671875 0 L 0.671875 -8.96875 L 7.984375 -8.96875 L 7.984375 -6.84375 L 3.390625 -6.84375 L 3.390625 -5.53125 L 7.578125 -5.53125 L 7.578125 -3.578125 L 3.390625 -3.578125 Z M 3.390625 -2.125 "/></g></g></g><g fill="#002f6d" fill-opacity="1"><g transform="translate(281.070423, 107.318291)"><g/></g></g><g fill="#ff9202" fill-opacity="1"><g transform="translate(287.224781, 107.318291)"><g><path d="M 3.390625 -2.125 L 8.015625 -2.125 L 8.015625 0 L 0.671875 0 L 0.671875 -8.96875 L 7.984375 -8.96875 L 7.984375 -6.84375 L 3.390625 -6.84375 L 3.390625 -5.53125 L 7.578125 -5.53125 L 7.578125 -3.578125 L 3.390625 -3.578125 Z M 3.390625 -2.125 "/></g></g></g><g fill="#002f6d" fill-opacity="1"><g transform="translate(298.422158, 107.318291)"><g><path d="M 4.671875 0.21875 C 3.941406 0.21875 3.3125 0.09375 2.78125 -0.15625 C 2.257812 -0.40625 1.828125 -0.742188 1.484375 -1.171875 C 1.140625 -1.609375 0.882812 -2.109375 0.71875 -2.671875 C 0.550781 -3.242188 0.46875 -3.847656 0.46875 -4.484375 C 0.46875 -5.128906 0.5625 -5.734375 0.75 -6.296875 C 0.9375 -6.859375 1.234375 -7.351562 1.640625 -7.78125 C 2.046875 -8.21875 2.566406 -8.5625 3.203125 -8.8125 C 3.847656 -9.0625 4.617188 -9.1875 5.515625 -9.1875 C 6.597656 -9.1875 7.457031 -9.035156 8.09375 -8.734375 C 8.738281 -8.441406 9.207031 -8.054688 9.5 -7.578125 C 9.800781 -7.097656 9.960938 -6.585938 9.984375 -6.046875 L 7.296875 -6.046875 C 7.253906 -6.328125 7.085938 -6.578125 6.796875 -6.796875 C 6.503906 -7.015625 6.09375 -7.125 5.5625 -7.125 C 4.84375 -7.125 4.285156 -6.921875 3.890625 -6.515625 C 3.492188 -6.109375 3.296875 -5.425781 3.296875 -4.46875 C 3.296875 -2.71875 3.984375 -1.84375 5.359375 -1.84375 C 5.835938 -1.84375 6.21875 -1.910156 6.5 -2.046875 C 6.789062 -2.179688 7.003906 -2.367188 7.140625 -2.609375 C 7.273438 -2.847656 7.367188 -3.113281 7.421875 -3.40625 L 4.8125 -3.40625 L 4.8125 -5.0625 L 9.984375 -5.0625 L 9.984375 0 L 7.734375 0 L 7.734375 -1.546875 C 7.628906 -1.265625 7.46875 -0.988281 7.25 -0.71875 C 7.03125 -0.457031 6.710938 -0.234375 6.296875 -0.046875 C 5.890625 0.128906 5.347656 0.21875 4.671875 0.21875 Z M 4.671875 0.21875 "/></g></g></g><g fill="#002f6d" fill-opacity="1"><g transform="translate(311.782957, 107.318291)"><g><path d="M 6.671875 -8.96875 L 9.671875 -8.96875 L 6.34375 -2.453125 L 6.34375 0 L 3.625 0 L 3.625 -2.453125 L 0.265625 -8.96875 L 3.296875 -8.96875 L 4.390625 -6.203125 C 4.492188 -5.953125 4.59375 -5.695312 4.6875 -5.4375 C 4.78125 -5.1875 4.867188 -4.929688 4.953125 -4.671875 C 5.035156 -4.929688 5.125 -5.1875 5.21875 -5.4375 C 5.3125 -5.695312 5.414062 -5.953125 5.53125 -6.203125 Z M 6.671875 -8.96875 "/></g></g></g><g fill="#002f6d" fill-opacity="1"><g transform="translate(324.34929, 107.318291)"><g><path d="M 5.953125 -8.96875 C 6.648438 -8.96875 7.210938 -8.832031 7.640625 -8.5625 C 8.066406 -8.289062 8.378906 -7.921875 8.578125 -7.453125 C 8.773438 -6.992188 8.875 -6.484375 8.875 -5.921875 C 8.875 -5.304688 8.773438 -4.753906 8.578125 -4.265625 C 8.378906 -3.785156 8.066406 -3.40625 7.640625 -3.125 C 7.210938 -2.851562 6.648438 -2.71875 5.953125 -2.71875 L 3.40625 -2.71875 L 3.40625 0 L 0.671875 0 L 0.671875 -8.96875 Z M 5 -4.78125 C 5.375 -4.78125 5.640625 -4.882812 5.796875 -5.09375 C 5.960938 -5.3125 6.046875 -5.578125 6.046875 -5.890625 C 6.046875 -6.191406 5.96875 -6.4375 5.8125 -6.625 C 5.65625 -6.8125 5.398438 -6.90625 5.046875 -6.90625 L 3.40625 -6.90625 L 3.40625 -4.78125 Z M 5 -4.78125 "/></g></g></g><g fill="#002f6d" fill-opacity="1"><g transform="translate(336.121159, 107.318291)"><g><path d="M 8.71875 -8.96875 L 8.71875 -6.84375 L 5.921875 -6.84375 L 5.921875 0 L 3.203125 0 L 3.203125 -6.84375 L 0.40625 -6.84375 L 0.40625 -8.96875 Z M 8.71875 -8.96875 "/></g></g></g></svg>